# MagicaVoxel @ Ephtracy

# group
o Player_RHand

# material
mtllib PlayerDark-7-Player_RHand.mtl
usemtl palette

# normals
vn -1 0 0
vn 1 0 0
vn 0 0 1
vn 0 0 -1
vn 0 -1 0
vn 0 1 0

# texcoords
vt 0.943359 0.5
vt 0.974609 0.5
vt 0.982422 0.5

# verts
v -2.3 1.3 0.3
v -2.3 1.3 -0.4
v -2.3 1.7 0.3
v -2.3 1.7 -0.4
v -2.2 1.2 0.5
v -2.2 1.2 -0.5
v -2.2 1.3 0.3
v -2.2 1.3 -0.4
v -2.2 1.7 0.3
v -2.2 1.7 -0.4
v -2.2 1.8 0.5
v -2.2 1.8 0.1
v -2.2 1.8 -0.3
v -2.2 1.8 -0.5
v -2.2 2.6 0.1
v -2.2 2.6 -0.3
v -2 1.8 0.3
v -2 1.8 0.1
v -2 1.8 -0.3
v -2 1.8 -0.5
v -2 2.5 0.3
v -2 2.5 0.2
v -2 2.5 -0.4
v -2 2.5 -0.5
v -2 2.6 0.2
v -2 2.6 0.1
v -2 2.6 -0.3
v -2 2.6 -0.4
v -2 2.8 0.1
v -2 2.8 -0.3
v -1.8 2.8 0.1
v -1.8 2.8 -0.3
v -1.8 3 0.1
v -1.8 3 -0.3
v -1.4 1.4 0.5
v -1.4 1.4 -0.1
v -1.4 1.6 0.5
v -1.4 1.6 -0.1
v -2 1.4 0.5
v -2 1.4 -0.5
v -2 1.6 0.5
v -2 1.6 -0.5
v -1.6 1.2 0.5
v -1.6 1.2 -0.5
v -1.6 1.4 0.5
v -1.6 1.4 -0.5
v -1.4 1.6 -0.1
v -1.4 1.6 -0.5
v -1.4 2 0.3
v -1.4 2 -0.1
v -1.4 2.5 0.3
v -1.4 2.5 0.2
v -1.4 2.5 -0.4
v -1.4 2.5 -0.5
v -1.4 2.6 0.2
v -1.4 2.6 0.1
v -1.4 2.6 -0.3
v -1.4 2.6 -0.4
v -1.4 3 0.1
v -1.4 3 -0.3
v -1.2 1.4 0.5
v -1.2 1.4 -0.1
v -1.2 1.8 0.5
v -1.2 1.8 0.3
v -1.2 2 0.3
v -1.2 2 -0.1
v -2.2 1.2 0.5
v -2.2 1.8 0.5
v -2 1.4 0.5
v -2 1.6 0.5
v -1.6 1.2 0.5
v -1.6 1.4 0.5
v -1.4 1.4 0.5
v -1.4 1.6 0.5
v -1.2 1.4 0.5
v -1.2 1.8 0.5
v -2.3 1.3 0.3
v -2.3 1.7 0.3
v -2.2 1.3 0.3
v -2.2 1.7 0.3
v -2 1.8 0.3
v -2 2.5 0.3
v -1.4 2 0.3
v -1.4 2.5 0.3
v -1.2 1.8 0.3
v -1.2 2 0.3
v -2 2.5 0.2
v -2 2.6 0.2
v -1.4 2.5 0.2
v -1.4 2.6 0.2
v -2.2 1.8 0.1
v -2.2 2.6 0.1
v -2 1.8 0.1
v -2 2.6 0.1
v -2 2.8 0.1
v -1.8 2.6 0.1
v -1.8 2.8 0.1
v -1.8 3 0.1
v -1.4 2.6 0.1
v -1.4 3 0.1
v -1.4 1.4 -0.1
v -1.4 1.6 -0.1
v -1.4 2 -0.1
v -1.2 1.4 -0.1
v -1.2 2 -0.1
v -2.2 1.8 -0.3
v -2.2 2.6 -0.3
v -2 1.8 -0.3
v -2 2.6 -0.3
v -2 2.8 -0.3
v -1.8 2.6 -0.3
v -1.8 2.8 -0.3
v -1.8 3 -0.3
v -1.4 2.6 -0.3
v -1.4 3 -0.3
v -2.3 1.3 -0.4
v -2.3 1.7 -0.4
v -2.2 1.3 -0.4
v -2.2 1.7 -0.4
v -2 2.5 -0.4
v -2 2.6 -0.4
v -1.4 2.5 -0.4
v -1.4 2.6 -0.4
v -2.2 1.2 -0.5
v -2.2 1.8 -0.5
v -2 1.4 -0.5
v -2 1.6 -0.5
v -2 1.8 -0.5
v -2 2.5 -0.5
v -1.6 1.2 -0.5
v -1.6 1.4 -0.5
v -1.4 1.6 -0.5
v -1.4 2.5 -0.5
v -2.2 1.2 0.5
v -1.6 1.2 0.5
v -2.2 1.2 -0.5
v -1.6 1.2 -0.5
v -2.3 1.3 0.3
v -2.2 1.3 0.3
v -2.3 1.3 -0.4
v -2.2 1.3 -0.4
v -1.4 1.4 0.5
v -1.2 1.4 0.5
v -1.4 1.4 -0.1
v -1.2 1.4 -0.1
v -2 1.6 0.5
v -1.4 1.6 0.5
v -1.4 1.6 -0.1
v -2 1.6 -0.5
v -1.4 1.6 -0.5
v -2 1.4 0.5
v -1.6 1.4 0.5
v -2 1.4 -0.5
v -1.6 1.4 -0.5
v -2.3 1.7 0.3
v -2.2 1.7 0.3
v -2.3 1.7 -0.4
v -2.2 1.7 -0.4
v -2.2 1.8 0.5
v -1.2 1.8 0.5
v -2 1.8 0.3
v -1.2 1.8 0.3
v -2.2 1.8 0.1
v -2 1.8 0.1
v -2.2 1.8 -0.3
v -2 1.8 -0.3
v -2.2 1.8 -0.5
v -2 1.8 -0.5
v -1.4 2 0.3
v -1.2 2 0.3
v -1.4 2 -0.1
v -1.2 2 -0.1
v -2 2.5 0.3
v -1.4 2.5 0.3
v -2 2.5 0.2
v -1.4 2.5 0.2
v -2 2.5 -0.4
v -1.4 2.5 -0.4
v -2 2.5 -0.5
v -1.4 2.5 -0.5
v -2 2.6 0.2
v -1.4 2.6 0.2
v -2.2 2.6 0.1
v -2 2.6 0.1
v -1.8 2.6 0.1
v -1.4 2.6 0.1
v -2.2 2.6 -0.3
v -2 2.6 -0.3
v -1.8 2.6 -0.3
v -1.4 2.6 -0.3
v -2 2.6 -0.4
v -1.4 2.6 -0.4
v -2 2.8 0.1
v -1.8 2.8 0.1
v -2 2.8 -0.3
v -1.8 2.8 -0.3
v -1.8 3 0.1
v -1.4 3 0.1
v -1.8 3 -0.3
v -1.4 3 -0.3

# faces
f 3/2/1 2/2/1 1/2/1
f 4/2/1 2/2/1 3/2/1
f 7/2/1 6/2/1 5/2/1
f 8/2/1 6/2/1 7/2/1
f 9/2/1 7/2/1 5/2/1
f 10/2/1 6/2/1 8/2/1
f 11/2/1 9/2/1 5/2/1
f 11/2/1 10/2/1 9/2/1
f 12/2/1 10/2/1 11/2/1
f 13/2/1 10/2/1 12/2/1
f 14/2/1 6/2/1 10/2/1
f 14/2/1 10/2/1 13/2/1
f 15/3/1 13/3/1 12/3/1
f 16/3/1 13/3/1 15/3/1
f 21/2/1 18/2/1 17/2/1
f 22/2/1 18/2/1 21/2/1
f 23/2/1 20/2/1 19/2/1
f 24/2/1 20/2/1 23/2/1
f 25/2/1 18/2/1 22/2/1
f 26/2/1 18/2/1 25/2/1
f 27/2/1 23/2/1 19/2/1
f 28/2/1 23/2/1 27/2/1
f 29/3/1 27/3/1 26/3/1
f 30/3/1 27/3/1 29/3/1
f 33/1/1 32/1/1 31/1/1
f 34/1/1 32/1/1 33/1/1
f 37/2/1 36/2/1 35/2/1
f 38/2/1 36/2/1 37/2/1
f 39/2/2 40/2/2 41/2/2
f 41/2/2 40/2/2 42/2/2
f 43/2/2 44/2/2 45/2/2
f 45/2/2 44/2/2 46/2/2
f 47/2/2 48/2/2 50/2/2
f 49/2/2 50/2/2 51/2/2
f 51/2/2 50/2/2 52/2/2
f 50/2/2 48/2/2 53/2/2
f 52/2/2 50/2/2 53/2/2
f 53/2/2 48/2/2 54/2/2
f 52/2/2 53/2/2 55/2/2
f 55/2/2 53/2/2 56/2/2
f 56/2/2 53/2/2 57/2/2
f 57/2/2 53/2/2 58/2/2
f 56/1/2 57/1/2 59/1/2
f 59/1/2 57/1/2 60/1/2
f 61/2/2 62/2/2 63/2/2
f 63/2/2 62/2/2 64/2/2
f 64/2/2 62/2/2 65/2/2
f 65/2/2 62/2/2 66/2/2
f 69/2/3 68/2/3 67/2/3
f 70/2/3 68/2/3 69/2/3
f 71/2/3 69/2/3 67/2/3
f 72/2/3 69/2/3 71/2/3
f 74/2/3 68/2/3 70/2/3
f 75/2/3 74/2/3 73/2/3
f 76/2/3 68/2/3 74/2/3
f 76/2/3 74/2/3 75/2/3
f 79/2/3 78/2/3 77/2/3
f 80/2/3 78/2/3 79/2/3
f 83/2/3 82/2/3 81/2/3
f 84/2/3 82/2/3 83/2/3
f 85/2/3 83/2/3 81/2/3
f 86/2/3 83/2/3 85/2/3
f 89/2/3 88/2/3 87/2/3
f 90/2/3 88/2/3 89/2/3
f 93/3/3 92/3/3 91/3/3
f 94/3/3 92/3/3 93/3/3
f 96/3/3 95/3/3 94/3/3
f 97/3/3 95/3/3 96/3/3
f 99/1/3 97/1/3 96/1/3
f 99/1/3 98/1/3 97/1/3
f 100/1/3 98/1/3 99/1/3
f 101/2/4 102/2/4 104/2/4
f 102/2/4 103/2/4 104/2/4
f 104/2/4 103/2/4 105/2/4
f 106/3/4 107/3/4 108/3/4
f 108/3/4 107/3/4 109/3/4
f 109/3/4 110/3/4 111/3/4
f 111/3/4 110/3/4 112/3/4
f 111/1/4 112/1/4 114/1/4
f 112/1/4 113/1/4 114/1/4
f 114/1/4 113/1/4 115/1/4
f 116/2/4 117/2/4 118/2/4
f 118/2/4 117/2/4 119/2/4
f 120/2/4 121/2/4 122/2/4
f 122/2/4 121/2/4 123/2/4
f 124/2/4 125/2/4 126/2/4
f 126/2/4 125/2/4 127/2/4
f 127/2/4 125/2/4 128/2/4
f 124/2/4 126/2/4 130/2/4
f 130/2/4 126/2/4 131/2/4
f 128/2/4 129/2/4 132/2/4
f 127/2/4 128/2/4 132/2/4
f 132/2/4 129/2/4 133/2/4
f 136/2/5 135/2/5 134/2/5
f 137/2/5 135/2/5 136/2/5
f 140/2/5 139/2/5 138/2/5
f 141/2/5 139/2/5 140/2/5
f 144/2/5 143/2/5 142/2/5
f 145/2/5 143/2/5 144/2/5
f 148/2/5 147/2/5 146/2/5
f 149/2/5 148/2/5 146/2/5
f 150/2/5 148/2/5 149/2/5
f 151/2/6 152/2/6 153/2/6
f 153/2/6 152/2/6 154/2/6
f 155/2/6 156/2/6 157/2/6
f 157/2/6 156/2/6 158/2/6
f 159/2/6 160/2/6 161/2/6
f 161/2/6 160/2/6 162/2/6
f 159/2/6 161/2/6 163/2/6
f 163/2/6 161/2/6 164/2/6
f 165/2/6 166/2/6 167/2/6
f 167/2/6 166/2/6 168/2/6
f 169/2/6 170/2/6 171/2/6
f 171/2/6 170/2/6 172/2/6
f 173/2/6 174/2/6 175/2/6
f 175/2/6 174/2/6 176/2/6
f 177/2/6 178/2/6 179/2/6
f 179/2/6 178/2/6 180/2/6
f 181/2/6 182/2/6 184/2/6
f 184/2/6 182/2/6 185/2/6
f 185/2/6 182/2/6 186/2/6
f 183/3/6 184/3/6 187/3/6
f 187/3/6 184/3/6 188/3/6
f 189/2/6 190/2/6 191/2/6
f 188/2/6 189/2/6 191/2/6
f 191/2/6 190/2/6 192/2/6
f 193/3/6 194/3/6 195/3/6
f 195/3/6 194/3/6 196/3/6
f 197/1/6 198/1/6 199/1/6
f 199/1/6 198/1/6 200/1/6
