# MagicaVoxel @ Ephtracy

# group
o TheMask_Hat

# material
mtllib TheMask-1-TheMask_Hat.mtl
usemtl palette

# normals
vn -1 0 0
vn 1 0 0
vn 0 0 1
vn 0 0 -1
vn 0 -1 0
vn 0 1 0

# texcoords
vt 0.771484 0.5
vt 0.775391 0.5

# verts
v -4.2 9.3 2.7
v -4.2 9.3 -2.5
v -4.2 9.7 2.7
v -4.2 9.7 -2.5
v -3.8 9.3 3.1
v -3.8 9.3 2.7
v -3.8 9.3 -2.5
v -3.8 9.3 -2.9
v -3.8 9.7 3.1
v -3.8 9.7 2.7
v -3.8 9.7 -2.5
v -3.8 9.7 -2.9
v -3.4 9.3 3.5
v -3.4 9.3 3.1
v -3.4 9.3 -2.9
v -3.4 9.3 -3.3
v -3.4 9.7 3.5
v -3.4 9.7 3.1
v -3.4 9.7 -2.9
v -3.4 9.7 -3.3
v -2.2 9.7 1.1
v -2.2 9.7 -0.9
v -2.2 10.1 1.1
v -2.2 10.1 -0.9
v -2.2 10.9 1.1
v -2.2 10.9 -0.9
v -1.8 9.7 1.5
v -1.8 9.7 1.1
v -1.8 9.7 -0.9
v -1.8 9.7 -1.3
v -1.8 10.1 1.5
v -1.8 10.1 1.1
v -1.8 10.1 -0.9
v -1.8 10.1 -1.3
v -1.8 10.9 1.5
v -1.8 10.9 1.1
v -1.8 10.9 -0.9
v -1.8 10.9 -1.3
v -1.4 9.7 1.9
v -1.4 9.7 1.5
v -1.4 9.7 -1.3
v -1.4 9.7 -1.7
v -1.4 10.1 1.9
v -1.4 10.1 1.5
v -1.4 10.1 -1.3
v -1.4 10.1 -1.7
v -1.4 10.9 1.9
v -1.4 10.9 1.5
v -1.4 10.9 -1.3
v -1.4 10.9 -1.7
v 1.5 9.7 1.9
v 1.5 9.7 1.5
v 1.5 9.7 -1.3
v 1.5 9.7 -1.7
v 1.5 10.1 1.9
v 1.5 10.1 1.5
v 1.5 10.1 -1.3
v 1.5 10.1 -1.7
v 1.5 10.9 1.9
v 1.5 10.9 1.5
v 1.5 10.9 -1.3
v 1.5 10.9 -1.7
v 1.9 9.7 1.5
v 1.9 9.7 1.1
v 1.9 9.7 -0.9
v 1.9 9.7 -1.3
v 1.9 10.1 1.5
v 1.9 10.1 1.1
v 1.9 10.1 -0.9
v 1.9 10.1 -1.3
v 1.9 10.9 1.5
v 1.9 10.9 1.1
v 1.9 10.9 -0.9
v 1.9 10.9 -1.3
v 2.3 9.7 1.1
v 2.3 9.7 -0.9
v 2.3 10.1 1.1
v 2.3 10.1 -0.9
v 2.3 10.9 1.1
v 2.3 10.9 -0.9
v 3.5 9.3 3.5
v 3.5 9.3 3.1
v 3.5 9.3 -2.9
v 3.5 9.3 -3.3
v 3.5 9.7 3.5
v 3.5 9.7 3.1
v 3.5 9.7 -2.9
v 3.5 9.7 -3.3
v 3.9 9.3 3.1
v 3.9 9.3 2.7
v 3.9 9.3 -2.5
v 3.9 9.3 -2.9
v 3.9 9.7 3.1
v 3.9 9.7 2.7
v 3.9 9.7 -2.5
v 3.9 9.7 -2.9
v 4.3 9.3 2.7
v 4.3 9.3 -2.5
v 4.3 9.7 2.7
v 4.3 9.7 -2.5
v -3.4 9.3 3.5
v -3.4 9.7 3.5
v 3.5 9.3 3.5
v 3.5 9.7 3.5
v -3.8 9.3 3.1
v -3.8 9.7 3.1
v -3.4 9.3 3.1
v -3.4 9.7 3.1
v 3.5 9.3 3.1
v 3.5 9.7 3.1
v 3.9 9.3 3.1
v 3.9 9.7 3.1
v -4.2 9.3 2.7
v -4.2 9.7 2.7
v -3.8 9.3 2.7
v -3.8 9.7 2.7
v 3.9 9.3 2.7
v 3.9 9.7 2.7
v 4.3 9.3 2.7
v 4.3 9.7 2.7
v -1.4 9.7 1.9
v -1.4 10.1 1.9
v -1.4 10.9 1.9
v 1.5 9.7 1.9
v 1.5 10.1 1.9
v 1.5 10.9 1.9
v -1.8 9.7 1.5
v -1.8 10.1 1.5
v -1.8 10.9 1.5
v -1.4 9.7 1.5
v -1.4 10.1 1.5
v -1.4 10.9 1.5
v 1.5 9.7 1.5
v 1.5 10.1 1.5
v 1.5 10.9 1.5
v 1.9 9.7 1.5
v 1.9 10.1 1.5
v 1.9 10.9 1.5
v -2.2 9.7 1.1
v -2.2 10.1 1.1
v -2.2 10.9 1.1
v -1.8 9.7 1.1
v -1.8 10.1 1.1
v -1.8 10.9 1.1
v 1.9 9.7 1.1
v 1.9 10.1 1.1
v 1.9 10.9 1.1
v 2.3 9.7 1.1
v 2.3 10.1 1.1
v 2.3 10.9 1.1
v -2.2 9.7 -0.9
v -2.2 10.1 -0.9
v -2.2 10.9 -0.9
v -1.8 9.7 -0.9
v -1.8 10.1 -0.9
v -1.8 10.9 -0.9
v 1.9 9.7 -0.9
v 1.9 10.1 -0.9
v 1.9 10.9 -0.9
v 2.3 9.7 -0.9
v 2.3 10.1 -0.9
v 2.3 10.9 -0.9
v -1.8 9.7 -1.3
v -1.8 10.1 -1.3
v -1.8 10.9 -1.3
v -1.4 9.7 -1.3
v -1.4 10.1 -1.3
v -1.4 10.9 -1.3
v 1.5 9.7 -1.3
v 1.5 10.1 -1.3
v 1.5 10.9 -1.3
v 1.9 9.7 -1.3
v 1.9 10.1 -1.3
v 1.9 10.9 -1.3
v -1.4 9.7 -1.7
v -1.4 10.1 -1.7
v -1.4 10.9 -1.7
v 1.5 9.7 -1.7
v 1.5 10.1 -1.7
v 1.5 10.9 -1.7
v -4.2 9.3 -2.5
v -4.2 9.7 -2.5
v -3.8 9.3 -2.5
v -3.8 9.7 -2.5
v 3.9 9.3 -2.5
v 3.9 9.7 -2.5
v 4.3 9.3 -2.5
v 4.3 9.7 -2.5
v -3.8 9.3 -2.9
v -3.8 9.7 -2.9
v -3.4 9.3 -2.9
v -3.4 9.7 -2.9
v 3.5 9.3 -2.9
v 3.5 9.7 -2.9
v 3.9 9.3 -2.9
v 3.9 9.7 -2.9
v -3.4 9.3 -3.3
v -3.4 9.7 -3.3
v 3.5 9.3 -3.3
v 3.5 9.7 -3.3
v -3.4 9.3 3.5
v 3.5 9.3 3.5
v -3.8 9.3 3.1
v -3.4 9.3 3.1
v 3.5 9.3 3.1
v 3.9 9.3 3.1
v -4.2 9.3 2.7
v -3.8 9.3 2.7
v 3.9 9.3 2.7
v 4.3 9.3 2.7
v -4.2 9.3 -2.5
v -3.8 9.3 -2.5
v 3.9 9.3 -2.5
v 4.3 9.3 -2.5
v -3.8 9.3 -2.9
v -3.4 9.3 -2.9
v 3.5 9.3 -2.9
v 3.9 9.3 -2.9
v -3.4 9.3 -3.3
v 3.5 9.3 -3.3
v -3.4 9.7 3.5
v 3.5 9.7 3.5
v -3.8 9.7 3.1
v -3.4 9.7 3.1
v 3.5 9.7 3.1
v 3.9 9.7 3.1
v -4.2 9.7 2.7
v -3.8 9.7 2.7
v 3.9 9.7 2.7
v 4.3 9.7 2.7
v -1.4 9.7 1.9
v 1.5 9.7 1.9
v -1.8 9.7 1.5
v -1.4 9.7 1.5
v 1.5 9.7 1.5
v 1.9 9.7 1.5
v -2.2 9.7 1.1
v -1.8 9.7 1.1
v 1.9 9.7 1.1
v 2.3 9.7 1.1
v -2.2 9.7 -0.9
v -1.8 9.7 -0.9
v 1.9 9.7 -0.9
v 2.3 9.7 -0.9
v -1.8 9.7 -1.3
v -1.4 9.7 -1.3
v 1.5 9.7 -1.3
v 1.9 9.7 -1.3
v -1.4 9.7 -1.7
v 1.5 9.7 -1.7
v -4.2 9.7 -2.5
v -3.8 9.7 -2.5
v 3.9 9.7 -2.5
v 4.3 9.7 -2.5
v -3.8 9.7 -2.9
v -3.4 9.7 -2.9
v 3.5 9.7 -2.9
v 3.9 9.7 -2.9
v -3.4 9.7 -3.3
v 3.5 9.7 -3.3
v -1.4 10.9 1.9
v 1.5 10.9 1.9
v -1.8 10.9 1.5
v -1.4 10.9 1.5
v 1.5 10.9 1.5
v 1.9 10.9 1.5
v -2.2 10.9 1.1
v -1.8 10.9 1.1
v 1.9 10.9 1.1
v 2.3 10.9 1.1
v -2.2 10.9 -0.9
v -1.8 10.9 -0.9
v 1.9 10.9 -0.9
v 2.3 10.9 -0.9
v -1.8 10.9 -1.3
v -1.4 10.9 -1.3
v 1.5 10.9 -1.3
v 1.9 10.9 -1.3
v -1.4 10.9 -1.7
v 1.5 10.9 -1.7

# faces
f 3/2/1 2/2/1 1/2/1
f 4/2/1 2/2/1 3/2/1
f 9/2/1 6/2/1 5/2/1
f 10/2/1 6/2/1 9/2/1
f 11/2/1 8/2/1 7/2/1
f 12/2/1 8/2/1 11/2/1
f 17/2/1 14/2/1 13/2/1
f 18/2/1 14/2/1 17/2/1
f 19/2/1 16/2/1 15/2/1
f 20/2/1 16/2/1 19/2/1
f 23/1/1 22/1/1 21/1/1
f 24/1/1 22/1/1 23/1/1
f 25/2/1 24/2/1 23/2/1
f 26/2/1 24/2/1 25/2/1
f 31/1/1 28/1/1 27/1/1
f 32/1/1 28/1/1 31/1/1
f 33/1/1 30/1/1 29/1/1
f 34/1/1 30/1/1 33/1/1
f 35/2/1 32/2/1 31/2/1
f 36/2/1 32/2/1 35/2/1
f 37/2/1 34/2/1 33/2/1
f 38/2/1 34/2/1 37/2/1
f 43/1/1 40/1/1 39/1/1
f 44/1/1 40/1/1 43/1/1
f 45/1/1 42/1/1 41/1/1
f 46/1/1 42/1/1 45/1/1
f 47/2/1 44/2/1 43/2/1
f 48/2/1 44/2/1 47/2/1
f 49/2/1 46/2/1 45/2/1
f 50/2/1 46/2/1 49/2/1
f 51/1/2 52/1/2 55/1/2
f 55/1/2 52/1/2 56/1/2
f 53/1/2 54/1/2 57/1/2
f 57/1/2 54/1/2 58/1/2
f 55/2/2 56/2/2 59/2/2
f 59/2/2 56/2/2 60/2/2
f 57/2/2 58/2/2 61/2/2
f 61/2/2 58/2/2 62/2/2
f 63/1/2 64/1/2 67/1/2
f 67/1/2 64/1/2 68/1/2
f 65/1/2 66/1/2 69/1/2
f 69/1/2 66/1/2 70/1/2
f 67/2/2 68/2/2 71/2/2
f 71/2/2 68/2/2 72/2/2
f 69/2/2 70/2/2 73/2/2
f 73/2/2 70/2/2 74/2/2
f 75/1/2 76/1/2 77/1/2
f 77/1/2 76/1/2 78/1/2
f 77/2/2 78/2/2 79/2/2
f 79/2/2 78/2/2 80/2/2
f 81/2/2 82/2/2 85/2/2
f 85/2/2 82/2/2 86/2/2
f 83/2/2 84/2/2 87/2/2
f 87/2/2 84/2/2 88/2/2
f 89/2/2 90/2/2 93/2/2
f 93/2/2 90/2/2 94/2/2
f 91/2/2 92/2/2 95/2/2
f 95/2/2 92/2/2 96/2/2
f 97/2/2 98/2/2 99/2/2
f 99/2/2 98/2/2 100/2/2
f 103/2/3 102/2/3 101/2/3
f 104/2/3 102/2/3 103/2/3
f 107/2/3 106/2/3 105/2/3
f 108/2/3 106/2/3 107/2/3
f 111/2/3 110/2/3 109/2/3
f 112/2/3 110/2/3 111/2/3
f 115/2/3 114/2/3 113/2/3
f 116/2/3 114/2/3 115/2/3
f 119/2/3 118/2/3 117/2/3
f 120/2/3 118/2/3 119/2/3
f 124/1/3 122/1/3 121/1/3
f 125/2/3 123/2/3 122/2/3
f 125/1/3 122/1/3 124/1/3
f 126/2/3 123/2/3 125/2/3
f 130/1/3 128/1/3 127/1/3
f 131/2/3 129/2/3 128/2/3
f 131/1/3 128/1/3 130/1/3
f 132/2/3 129/2/3 131/2/3
f 136/1/3 134/1/3 133/1/3
f 137/2/3 135/2/3 134/2/3
f 137/1/3 134/1/3 136/1/3
f 138/2/3 135/2/3 137/2/3
f 142/1/3 140/1/3 139/1/3
f 143/2/3 141/2/3 140/2/3
f 143/1/3 140/1/3 142/1/3
f 144/2/3 141/2/3 143/2/3
f 148/1/3 146/1/3 145/1/3
f 149/2/3 147/2/3 146/2/3
f 149/1/3 146/1/3 148/1/3
f 150/2/3 147/2/3 149/2/3
f 151/1/4 152/1/4 154/1/4
f 152/2/4 153/2/4 155/2/4
f 154/1/4 152/1/4 155/1/4
f 155/2/4 153/2/4 156/2/4
f 157/1/4 158/1/4 160/1/4
f 158/2/4 159/2/4 161/2/4
f 160/1/4 158/1/4 161/1/4
f 161/2/4 159/2/4 162/2/4
f 163/1/4 164/1/4 166/1/4
f 164/2/4 165/2/4 167/2/4
f 166/1/4 164/1/4 167/1/4
f 167/2/4 165/2/4 168/2/4
f 169/1/4 170/1/4 172/1/4
f 170/2/4 171/2/4 173/2/4
f 172/1/4 170/1/4 173/1/4
f 173/2/4 171/2/4 174/2/4
f 175/1/4 176/1/4 178/1/4
f 176/2/4 177/2/4 179/2/4
f 178/1/4 176/1/4 179/1/4
f 179/2/4 177/2/4 180/2/4
f 181/2/4 182/2/4 183/2/4
f 183/2/4 182/2/4 184/2/4
f 185/2/4 186/2/4 187/2/4
f 187/2/4 186/2/4 188/2/4
f 189/2/4 190/2/4 191/2/4
f 191/2/4 190/2/4 192/2/4
f 193/2/4 194/2/4 195/2/4
f 195/2/4 194/2/4 196/2/4
f 197/2/4 198/2/4 199/2/4
f 199/2/4 198/2/4 200/2/4
f 204/2/5 202/2/5 201/2/5
f 205/2/5 202/2/5 204/2/5
f 208/2/5 204/2/5 203/2/5
f 208/2/5 206/2/5 205/2/5
f 208/2/5 205/2/5 204/2/5
f 209/2/5 206/2/5 208/2/5
f 211/2/5 208/2/5 207/2/5
f 211/2/5 210/2/5 209/2/5
f 211/2/5 209/2/5 208/2/5
f 212/2/5 210/2/5 211/2/5
f 213/2/5 210/2/5 212/2/5
f 214/2/5 210/2/5 213/2/5
f 215/2/5 213/2/5 212/2/5
f 216/2/5 213/2/5 215/2/5
f 217/2/5 213/2/5 216/2/5
f 218/2/5 213/2/5 217/2/5
f 219/2/5 217/2/5 216/2/5
f 220/2/5 217/2/5 219/2/5
f 221/2/6 222/2/6 224/2/6
f 224/2/6 222/2/6 225/2/6
f 223/2/6 224/2/6 228/2/6
f 225/2/6 226/2/6 228/2/6
f 224/2/6 225/2/6 228/2/6
f 228/2/6 226/2/6 229/2/6
f 227/2/6 228/2/6 231/2/6
f 229/2/6 230/2/6 231/2/6
f 228/2/6 229/2/6 231/2/6
f 231/2/6 230/2/6 232/2/6
f 227/2/6 231/2/6 233/2/6
f 233/2/6 231/2/6 234/2/6
f 232/2/6 230/2/6 235/2/6
f 235/2/6 230/2/6 236/2/6
f 227/2/6 233/2/6 237/2/6
f 237/2/6 233/2/6 238/2/6
f 236/2/6 230/2/6 239/2/6
f 239/2/6 230/2/6 240/2/6
f 227/2/6 237/2/6 241/2/6
f 240/2/6 230/2/6 244/2/6
f 241/2/6 242/2/6 245/2/6
f 243/2/6 244/2/6 248/2/6
f 245/2/6 246/2/6 249/2/6
f 247/2/6 248/2/6 250/2/6
f 245/2/6 249/2/6 251/2/6
f 249/2/6 250/2/6 251/2/6
f 227/2/6 241/2/6 251/2/6
f 241/2/6 245/2/6 251/2/6
f 251/2/6 250/2/6 252/2/6
f 250/2/6 248/2/6 253/2/6
f 252/2/6 250/2/6 253/2/6
f 244/2/6 230/2/6 253/2/6
f 248/2/6 244/2/6 253/2/6
f 253/2/6 230/2/6 254/2/6
f 252/2/6 253/2/6 255/2/6
f 255/2/6 253/2/6 256/2/6
f 256/2/6 253/2/6 257/2/6
f 257/2/6 253/2/6 258/2/6
f 256/2/6 257/2/6 259/2/6
f 259/2/6 257/2/6 260/2/6
f 261/2/6 262/2/6 264/2/6
f 264/2/6 262/2/6 265/2/6
f 263/2/6 264/2/6 268/2/6
f 265/2/6 266/2/6 268/2/6
f 264/2/6 265/2/6 268/2/6
f 268/2/6 266/2/6 269/2/6
f 267/2/6 268/2/6 271/2/6
f 269/2/6 270/2/6 271/2/6
f 268/2/6 269/2/6 271/2/6
f 271/2/6 270/2/6 272/2/6
f 272/2/6 270/2/6 273/2/6
f 273/2/6 270/2/6 274/2/6
f 272/2/6 273/2/6 275/2/6
f 275/2/6 273/2/6 276/2/6
f 276/2/6 273/2/6 277/2/6
f 277/2/6 273/2/6 278/2/6
f 276/2/6 277/2/6 279/2/6
f 279/2/6 277/2/6 280/2/6
